<svg width="48" height="48" viewBox="0 0 48 48" fill="none" xmlns="http://www.w3.org/2000/svg">
<path d="M37 8H10V8.5L11.21 9.71C11.4 9.9 11.65 10 11.92 10H36.01V31C36.01 34.86 32.87 38 29.01 38H12V15C12 14.45 11.55 14 11 14C10.45 14 10 14.45 10 15V39C10 39.55 10.45 40 11 40H29C33.96 40 38 35.96 38 31V9C38 8.45 37.55 8 37 8Z" fill="current"/>
<path d="M17 24H31C31.55 24 32 23.55 32 23C32 22.45 31.55 22 31 22H17C16.45 22 16 22.45 16 23C16 23.55 16.45 24 17 24Z" fill="current"/>
<path d="M17 18H31C31.55 18 32 17.55 32 17C32 16.45 31.55 16 31 16H17C16.45 16 16 16.45 16 17C16 17.55 16.45 18 17 18Z" fill="current"/>
<path d="M31 28H27C26.45 28 26 28.45 26 29C26 29.55 26.45 30 27 30H31C31.55 30 32 29.55 32 29C32 28.45 31.55 28 31 28Z" fill="current"/>
</svg>
