<svg width="48" height="48" viewBox="0 0 48 48" fill="none" xmlns="http://www.w3.org/2000/svg">
<path d="M41 10H30V7C30 6.45 29.55 6 29 6H21C20.45 6 20 6.45 20 7V10H8V10.5L9.13 11.71C9.31 11.9 9.54 12 9.79 12H36V35C36 36.65 34.65 38 33 38H17C15.35 38 14 36.65 14 35V17C14 16.45 13.55 16 13 16C12.45 16 12 16.45 12 17V35C12 37.76 14.24 40 17 40H33C35.76 40 38 37.76 38 35V12H41C41.55 12 42 11.55 42 11C42 10.45 41.55 10 41 10ZM23 10H22V8H28V10H23Z" fill="current"/>
<path d="M22 31V19C22 18.45 21.55 18 21 18C20.45 18 20 18.45 20 19V31C20 31.55 20.45 32 21 32C21.55 32 22 31.55 22 31Z" fill="current"/>
<path d="M30 31V19C30 18.45 29.55 18 29 18C28.45 18 28 18.45 28 19V31C28 31.55 28.45 32 29 32C29.55 32 30 31.55 30 31Z" fill="current"/>
</svg>
