<svg width="48" height="48" viewBox="0 0 48 48" fill="none"  xmlns="http://www.w3.org/2000/svg">
<path d="M39.71 38.29L30.86 29.44C32.81 27.17 34 24.22 34 20.99C34 13.82 28.17 7.98999 21 7.98999H8V8.48999L9.36 9.69999C9.57 9.88999 9.86 9.98999 10.16 9.98999H21.01C27.08 9.98999 32.01 14.92 32.01 20.99C32.01 27.06 27.08 31.99 21.01 31.99C14.94 31.99 10.01 27.06 10.01 20.99C10.01 19.07 10.52 17.17 11.49 15.49C11.77 15.01 11.6 14.4 11.13 14.12C10.65 13.84 10.04 14.01 9.76 14.48C8.61 16.46 8.01 18.71 8.01 20.98C8.01 28.15 13.84 33.98 21.01 33.98C24.23 33.98 27.18 32.79 29.46 30.84L38.31 39.69C38.51 39.89 38.76 39.98 39.02 39.98C39.28 39.98 39.53 39.88 39.73 39.69C40.12 39.3 40.12 38.67 39.73 38.28L39.71 38.29Z" fill="current" />
</svg>
