<svg width="12" height="12" viewBox="0 0 12 12" fill="none" xmlns="http://www.w3.org/2000/svg">
<path d="M-9.20296e-05 6.0001C-9.20296e-05 6.1201 0.0399079 6.2401 0.129908 6.3401L5.12991 11.8401C5.31991 12.0401 5.62991 12.0601 5.83991 11.8701C6.03991 11.6801 6.04991 11.3701 5.86991 11.1601L1.17991 6.0001L5.86991 0.840103C6.04991 0.640103 6.03991 0.320103 5.83991 0.130103C5.63991 -0.0598965 5.31991 -0.039897 5.12991 0.160103L0.129908 5.6601C0.0399079 5.7501 -9.20296e-05 5.8801 -9.20296e-05 6.0001Z" fill="current"/>
<path d="M5.99795 6.0001C5.99795 6.1201 6.03795 6.2401 6.12795 6.3401L11.128 11.8401C11.318 12.0401 11.628 12.0601 11.838 11.8701C12.038 11.6801 12.048 11.3701 11.868 11.1601L7.17795 6.0001L11.868 0.840103C12.048 0.640103 12.038 0.320103 11.838 0.130103C11.638 -0.0598965 11.318 -0.039897 11.128 0.160103L6.12795 5.6601C6.03795 5.7501 5.99795 5.8801 5.99795 6.0001Z" fill="current"/>
</svg>
