<svg width="24" height="24" viewBox="0 0 24 24" fill="none" xmlns="http://www.w3.org/2000/svg">
<path fill-rule="evenodd" clip-rule="evenodd" d="M9.9844 9.31836C9.3885 8.75873 9.33192 7.8507 9.45927 7.04319C9.48611 6.87302 9.5 6.69889 9.5 6.52174C9.5 4.57668 7.82031 3 5.75 3C3.67969 3 2 4.57668 2 6.52174C2 8.4668 3.67969 10.0435 5.75 10.0435C6.05436 10.0435 6.35221 10.0095 6.63542 9.94489C7.35757 9.78062 8.1686 9.82613 8.70839 10.3332L8.98292 10.5911C9.13839 10.7371 9.22656 10.941 9.22656 11.1543V15.1165C9.22656 15.4531 9.08739 15.7747 8.84202 16.0052C8.4641 16.3601 7.90386 16.4086 7.39096 16.3329C7.26357 16.3141 7.13297 16.3043 7 16.3043C5.61979 16.3043 4.5 17.3556 4.5 18.6522C4.5 19.9487 5.61979 21 7 21C8.38021 21 9.5 19.9487 9.5 18.6522C9.5 18.5643 9.49482 18.4775 9.48474 18.3921C9.43936 18.0076 9.50572 17.5948 9.78796 17.3297C9.95847 17.1696 10.1836 17.0805 10.4175 17.0805H15.1714C16.184 17.0805 17.0049 16.2596 17.0049 15.247V11.4078C17.0049 11.0765 17.1284 10.7572 17.3514 10.5121C17.7221 10.1046 18.3063 9.99538 18.8558 10.0353C18.9309 10.0407 19.0068 10.0435 19.0833 10.0435C20.6947 10.0435 22 8.81721 22 7.30435C22 5.79148 20.6947 4.56522 19.0833 4.56522C17.472 4.56522 16.1667 5.79148 16.1667 7.30435C16.1667 7.72475 16.2677 8.123 16.4478 8.47897C16.6204 8.82002 16.6273 9.24639 16.3701 9.52914C16.227 9.68636 16.0243 9.77599 15.8118 9.77599H11.1402C10.7107 9.77599 10.2974 9.61234 9.9844 9.31836Z" fill="url(#paint0_linear_1902_59237)"/>
<defs>
<linearGradient id="paint0_linear_1902_59237" x1="2" y1="3" x2="18.0547" y2="24.0142" gradientUnits="userSpaceOnUse">
<stop stop-color="#0046FF"/>
<stop offset="1" stop-color="#4BAFF5"/>
</linearGradient>
</defs>
</svg>
