<svg width="48" height="48" viewBox="0 0 48 48" fill="none" xmlns="http://www.w3.org/2000/svg">
<path d="M25.42 24L39.72 9.69998C40.12 9.29998 40.12 8.67998 39.72 8.27998C39.32 7.87998 38.7 7.87998 38.3 8.27998L24 22.58L9.69998 8.27998C9.29998 7.87998 8.67998 7.87998 8.27998 8.27998C7.87998 8.67998 7.87998 9.29998 8.27998 9.69998L22.58 24L8.27998 38.3C7.87998 38.7 7.87998 39.32 8.27998 39.72C8.47998 39.92 8.73998 40.02 8.97998 40.02C9.21998 40.02 9.49998 39.92 9.67998 39.72L23.98 25.42L38.28 39.72C38.48 39.92 38.74 40.02 38.98 40.02C39.22 40.02 39.5 39.92 39.68 39.72C40.08 39.32 40.08 38.7 39.68 38.3L25.38 24H25.42Z" fill="current"/>
</svg>
