<svg width="12" height="12" viewBox="0 0 12 12" fill="none" xmlns="http://www.w3.org/2000/svg">
<path d="M11.8439 11.15L9.7139 9.02C10.5139 8.07 10.9939 6.84 10.9939 5.5C10.9939 2.47 8.5239 0 5.4939 0C2.4639 0 -0.00610352 2.47 -0.00610352 5.5C-0.00610352 8.53 2.4639 11 5.4939 11C6.8339 11 8.0539 10.52 9.0139 9.72L11.1439 11.85C11.2439 11.95 11.3739 12 11.4939 12C11.6139 12 11.7539 11.95 11.8439 11.85C12.0439 11.65 12.0439 11.34 11.8439 11.14V11.15ZM0.993896 5.5C0.993896 3.02 3.0139 1 5.4939 1C7.9739 1 9.9939 3.02 9.9939 5.5C9.9939 7.98 7.9739 10 5.4939 10C3.0139 10 0.993896 7.98 0.993896 5.5Z" fill="current"/>
</svg>
