<svg width="11" height="9" viewBox="0 0 11 9" fill="none" xmlns="http://www.w3.org/2000/svg">
<path d="M10.99 4.50499C10.99 4.63485 10.9401 4.76471 10.8403 4.85461L6.8483 8.85017C6.65868 9.04994 6.33932 9.04994 6.1497 8.85017C5.96008 8.65039 5.9501 8.34073 6.1497 8.15094L9.79241 4.50499L6.1497 0.859045C5.9501 0.659267 5.9501 0.349611 6.1497 0.149833C6.3493 -0.0499449 6.65868 -0.0499449 6.85828 0.149833L10.8503 4.14539C10.9501 4.24528 11 4.37514 11 4.495L10.99 4.50499Z" fill="currentColor"/>
<path d="M4.99002 4.50499C4.99002 4.63485 4.94012 4.76471 4.84032 4.85461L0.848303 8.85017C0.658683 9.04994 0.339321 9.04994 0.149701 8.85017C-0.0399202 8.65039 -0.0499002 8.34073 0.149701 8.15094L3.79241 4.50499L0.149701 0.859045C-0.0499002 0.659267 -0.0499002 0.349611 0.149701 0.149833C0.349301 -0.0499449 0.658683 -0.0499449 0.858283 0.149833L4.8503 4.14539C4.9501 4.24528 5 4.37514 5 4.495L4.99002 4.50499Z" fill="currentColor"/>
</svg>
