<svg width="43" height="39" viewBox="0 0 43 39" fill="none" xmlns="http://www.w3.org/2000/svg">
<path fill-rule="evenodd" clip-rule="evenodd" d="M17.1571 13.6809C15.8791 12.4714 15.7566 10.5197 16.034 8.78205C16.094 8.40641 16.125 8.02182 16.125 7.63043C16.125 3.41614 12.5137 0 8.0625 0C3.61133 0 0 3.41614 0 7.63043C0 11.8447 3.61133 15.2609 8.0625 15.2609C8.71688 15.2609 9.35726 15.1872 9.96615 15.0473C11.5201 14.691 13.2636 14.791 14.4213 15.887L15.0111 16.4454C15.3469 16.7632 15.5371 17.2052 15.5371 17.6675V26.266C15.5371 26.987 15.2405 27.6761 14.7169 28.1717C13.9016 28.9433 12.6872 29.0481 11.5764 28.8859C11.307 28.8465 11.031 28.8261 10.75 28.8261C7.78255 28.8261 5.375 31.1038 5.375 33.913C5.375 36.7223 7.78255 39 10.75 39C13.7174 39 16.125 36.7223 16.125 33.913C16.125 33.7188 16.1134 33.527 16.0909 33.3384C15.9921 32.5116 16.1347 31.6245 16.7395 31.0521C17.1089 30.7025 17.5982 30.5077 18.1069 30.5077H28.3348C30.5029 30.5077 32.2605 28.7501 32.2605 26.582V18.2041C32.2605 17.4943 32.5238 16.8098 32.9994 16.2829C33.7992 15.397 35.0659 15.1601 36.2565 15.2442C36.4125 15.2553 36.5702 15.2609 36.7292 15.2609C40.1935 15.2609 43 12.604 43 9.32609C43 6.04821 40.1935 3.3913 36.7292 3.3913C33.2648 3.3913 30.4583 6.04821 30.4583 9.32609C30.4583 10.2397 30.6768 11.105 31.0663 11.8781C31.4369 12.6133 31.4515 13.5307 30.8998 14.1418C30.5898 14.4853 30.1488 14.6813 29.6861 14.6813H19.6694C18.7349 14.6813 17.8359 14.3233 17.1571 13.6809Z" fill="white"/>
</svg>
