<svg width="24" height="24" viewBox="0 0 24 24" fill="none" xmlns="http://www.w3.org/2000/svg">
<path d="M19.89 12.1802L14.85 7.14023C14.65 6.94023 14.34 6.94023 14.14 7.14023C13.94 7.34023 13.94 7.65023 14.14 7.85023L18.29 12.0002H4.5C4.22 12.0002 4 12.2202 4 12.5002C4 12.7802 4.22 13.0002 4.5 13.0002H18.37L14.19 17.1802C13.99 17.3802 13.99 17.6902 14.19 17.8902C14.29 17.9902 14.42 18.0402 14.54 18.0402C14.66 18.0402 14.8 17.9902 14.89 17.8902L19.89 12.8902C20.09 12.6902 20.09 12.3802 19.89 12.1802Z" fill="white"/>
</svg>
