<svg width="14" height="14" viewBox="0 0 14 14" fill="none" xmlns="http://www.w3.org/2000/svg">
<g clip-path="url(#clip0_1451_360)">
<path d="M7 14C10.866 14 14 10.866 14 7C14 3.13401 10.866 0 7 0C3.13401 0 0 3.13401 0 7C0 10.866 3.13401 14 7 14Z" fill="#CB3737"/>
<path d="M7.70324 7L8.85037 5.85572C9.04988 5.65672 9.04988 5.34826 8.85037 5.14925C8.65087 4.95025 8.34165 4.95025 8.14214 5.14925L6.99501 6.29353L5.84788 5.1592C5.65835 4.9602 5.33915 4.9602 5.14963 5.1592C4.9601 5.35821 4.95012 5.66667 5.14963 5.85572L6.29676 7L5.14963 8.14428C4.95012 8.34328 4.95012 8.65174 5.14963 8.85075C5.24938 8.95025 5.37905 9 5.49875 9C5.61845 9 5.7581 8.95025 5.84788 8.85075L6.99501 7.70647L8.14214 8.85075C8.2419 8.95025 8.37157 9 8.49127 9C8.61097 9 8.75062 8.95025 8.8404 8.85075C9.0399 8.65174 9.0399 8.34328 8.8404 8.14428L7.69327 7H7.70324Z" fill="white"/>
</g>
<defs>
<clipPath id="clip0_1451_360">
<rect width="14" height="14" fill="white"/>
</clipPath>
</defs>
</svg>
