<svg width="24" height="24" viewBox="0 0 24 24" fill="none" xmlns="http://www.w3.org/2000/svg">
<path d="M18.8502 18.1406L15.5702 14.863C16.4602 13.8137 16.9902 12.4647 16.9902 10.9957C16.9902 7.68808 14.3002 5 10.9902 5H5.42023C5.00023 5 4.83023 5.54961 5.18023 5.77944L6.71023 6.79872C5.65023 7.87794 4.99023 9.35689 4.99023 10.9957C4.99023 14.3034 7.68023 16.9914 10.9902 16.9914C12.4602 16.9914 13.8102 16.4518 14.8602 15.5724L18.1402 18.8501C18.2402 18.95 18.3702 19 18.4902 19C18.6102 19 18.7502 18.95 18.8402 18.8501C19.0402 18.6503 19.0402 18.3405 18.8402 18.1406H18.8502ZM6.00023 10.9957C6.00023 8.23769 8.24023 5.99929 11.0002 5.99929C13.7602 5.99929 16.0002 8.23769 16.0002 10.9957C16.0002 13.7537 13.7602 15.9921 11.0002 15.9921C8.24023 15.9921 6.00023 13.7537 6.00023 10.9957Z" fill="#666666"/>
</svg>
