<svg width="48" height="48" viewBox="0 0 48 48" fill="none" xmlns="http://www.w3.org/2000/svg">
<path d="M39 30C38.45 30 38 30.45 38 31C38 34.86 34.86 38 31 38H6V38.5L7.13 39.71C7.31 39.9 7.54 40 7.79 40H31C35.96 40 40 35.96 40 31C40 30.45 39.55 30 39 30Z" fill="current"/>
<path d="M22.297 31.71C22.3971 31.81 22.5071 31.88 22.6272 31.93C22.7473 31.98 22.8775 32 23.0076 32C23.1377 32 23.2678 31.97 23.3879 31.92C23.498 31.87 23.6081 31.8 23.6981 31.71L31.7048 23.71C32.0951 23.32 32.0951 22.69 31.7048 22.3C31.3145 21.91 30.684 21.91 30.2936 22.3L23.9984 28.59V9C23.9984 8.45 23.548 8 22.9976 8C22.4471 8 21.9967 8.45 21.9967 9V28.59L15.7015 22.3C15.3112 21.91 14.6806 21.91 14.2903 22.3C13.9 22.69 13.9 23.32 14.2903 23.71L22.297 31.71Z" fill="current"/>
</svg>
