<svg width="24" height="24" viewBox="0 0 24 24" fill="none" xmlns="http://www.w3.org/2000/svg">
<path d="M19.5006 15.01C19.2206 15.01 19.0006 15.23 19.0006 15.51V17.51C19.0006 18.34 18.3306 19.01 17.5006 19.01H7.50057C6.67057 19.01 6.00057 18.34 6.00057 17.51V15.51C6.00057 15.23 5.78057 15.01 5.50057 15.01H4.43057C4.01057 15.01 3.84057 15.56 4.19057 15.79L5.00057 16.33V17.5C5.00057 18.88 6.12057 20 7.50057 20H17.5006C18.8806 20 20.0006 18.88 20.0006 17.5V15.5C20.0006 15.22 19.7806 15 19.5006 15V15.01Z" fill="#2878F5"/>
<path d="M12.1608 15.85C12.1608 15.85 12.2605 15.93 12.3204 15.96C12.3803 15.99 12.4501 16 12.51 16C12.5698 16 12.6397 15.99 12.6996 15.96C12.7594 15.93 12.8193 15.9 12.8592 15.85L16.8503 11.85C17.0499 11.65 17.0499 11.34 16.8503 11.14C16.6508 10.94 16.3415 10.94 16.1419 11.14L12.9989 14.29V5.5C12.9989 5.22 12.7794 5 12.5 5C12.2206 5 12.0011 5.22 12.0011 5.5V14.29L8.85809 11.14C8.65854 10.94 8.34922 10.94 8.14967 11.14C7.95011 11.34 7.95011 11.65 8.14967 11.85L12.1408 15.85H12.1608Z" fill="#2878F5"/>
</svg>
