<svg width="8" height="9" viewBox="0 0 8 9" fill="none" xmlns="http://www.w3.org/2000/svg">
<path d="M4.71 4.01L7.85 0.86C8.05 0.66 8.05 0.35 7.85 0.15C7.65 -0.05 7.34 -0.05 7.14 0.15L3.99 3.3L0.85 0.16C0.66 -0.04 0.34 -0.04 0.15 0.16C-0.04 0.36 -0.05 0.67 0.15 0.86L3.3 4.01L0.15 7.16C-0.05 7.36 -0.05 7.67 0.15 7.87C0.25 7.97 0.38 8.02 0.5 8.02C0.62 8.02 0.76 7.97 0.85 7.87L4 4.72L7.15 7.87C7.25 7.97 7.38 8.02 7.5 8.02C7.62 8.02 7.76 7.97 7.85 7.87C8.05 7.67 8.05 7.36 7.85 7.16L4.7 4.01H4.71Z" fill="current"/>
</svg>
