<svg width="22" height="22" viewBox="0 0 22 22" fill="none" xmlns="http://www.w3.org/2000/svg">
<path d="M21.2744 20.225L16.3544 15.305C17.6894 13.73 18.4844 11.705 18.4844 9.5C18.4844 4.535 14.4494 0.5 9.48438 0.5H1.12938C0.499375 0.5 0.244375 1.325 0.769375 1.67L3.06438 3.2C1.47438 4.82 0.484375 7.04 0.484375 9.5C0.484375 14.465 4.51937 18.5 9.48438 18.5C11.6894 18.5 13.7144 17.69 15.2894 16.37L20.2094 21.29C20.3594 21.44 20.5544 21.515 20.7344 21.515C20.9144 21.515 21.1244 21.44 21.2594 21.29C21.5594 20.99 21.5594 20.525 21.2594 20.225H21.2744ZM1.99938 9.5C1.99938 5.36 5.35938 2 9.49938 2C13.6394 2 16.9994 5.36 16.9994 9.5C16.9994 13.64 13.6394 17 9.49938 17C5.35938 17 1.99938 13.64 1.99938 9.5Z" fill="current"/>
</svg>
