<svg width="24" height="24" viewBox="0 0 24 24" fill="none" xmlns="http://www.w3.org/2000/svg">
<g>
<path d="M12.51 10.07C12.35 10.03 12.18 10 12 10C10.9 10 10 10.9 10 12C10 13.1 10.9 14 12 14C13.1 14 14 13.1 14 12C14 11.82 13.97 11.65 13.93 11.49L16.21 9.21005L14.8 7.80005L12.52 10.08L12.51 10.07Z" fill="current"/>
<path d="M12 3C7.04 3 3 7.04 3 12C3 16.96 7.04 21 12 21C16.96 21 21 16.96 21 12C21 7.04 16.96 3 12 3ZM19 13H18.92C18.75 14.18 18.28 15.27 17.6 16.18L17.66 16.24C18.05 16.63 18.05 17.26 17.66 17.65C17.27 18.04 16.64 18.04 16.25 17.65L16.19 17.59C15.02 18.47 13.58 18.99 12.01 18.99C10.44 18.99 8.99 18.46 7.83 17.59L7.77 17.65C7.38 18.04 6.75 18.04 6.36 17.65C5.97 17.26 5.97 16.63 6.36 16.24L6.42 16.18C5.73 15.26 5.27 14.18 5.1 13H5.02C4.47 13 4.02 12.55 4.02 12C4.02 11.45 4.47 11 5.02 11H5.1C5.27 9.82 5.74 8.73 6.42 7.82L6.36 7.76C5.97 7.37 5.97 6.74 6.36 6.35C6.75 5.96 7.38 5.96 7.77 6.35L7.83 6.41C8.75 5.72 9.83 5.26 11.01 5.09V5.01C11.01 4.46 11.46 4.01 12.01 4.01C12.56 4.01 13.01 4.46 13.01 5.01V5.09C14.19 5.26 15.28 5.73 16.19 6.41L16.25 6.35C16.64 5.96 17.27 5.96 17.66 6.35C18.05 6.74 18.05 7.37 17.66 7.76L17.6 7.82C18.29 8.74 18.75 9.82 18.92 11H19C19.55 11 20 11.45 20 12C20 12.55 19.55 13 19 13Z" fill="current"/>
</g>
</svg>
