<svg width="48" height="48" viewBox="0 0 48 48" fill="none" xmlns="http://www.w3.org/2000/svg">
<path d="M39 23H19.86C19.41 21.28 17.86 20 16 20C14.14 20 12.59 21.28 12.14 23H9C8.45 23 8 23.45 8 24C8 24.55 8.45 25 9 25H12.14C12.59 26.72 14.14 28 16 28C17.86 28 19.41 26.72 19.86 25H39C39.55 25 40 24.55 40 24C40 23.45 39.55 23 39 23ZM16 26C14.9 26 14 25.1 14 24C14 22.9 14.9 22 16 22C17.1 22 18 22.9 18 24C18 25.1 17.1 26 16 26Z" fill="current"/>
<path d="M39 35H35.86C35.41 33.28 33.86 32 32 32C30.14 32 28.59 33.28 28.14 35H9C8.45 35 8 35.45 8 36C8 36.55 8.45 37 9 37H28.14C28.59 38.72 30.14 40 32 40C33.86 40 35.41 38.72 35.86 37H39C39.55 37 40 36.55 40 36C40 35.45 39.55 35 39 35ZM32 38C30.9 38 30 37.1 30 36C30 34.9 30.9 34 32 34C33.1 34 34 34.9 34 36C34 37.1 33.1 38 32 38Z" fill="current"/>
<path d="M9.91 13H28.14C28.59 14.72 30.14 16 32 16C33.86 16 35.41 14.72 35.86 13H39C39.55 13 40 12.55 40 12C40 11.45 39.55 11 39 11H35.86C35.41 9.28 33.86 8 32 8C30.14 8 28.59 9.28 28.14 11H8V11.5L9.21 12.71C9.4 12.9 9.65 13 9.92 13H9.91ZM32 10C33.1 10 34 10.9 34 12C34 13.1 33.1 14 32 14C30.9 14 30 13.1 30 12C30 10.9 30.9 10 32 10Z" fill="current"/>
</svg>
