<svg width="48" height="48" viewBox="0 0 48 48" fill="none" xmlns="http://www.w3.org/2000/svg">
<path d="M38 9H35V6C35 5.45 34.55 5 34 5C33.45 5 33 5.45 33 6V9H19V6C19 5.45 18.55 5 18 5C17.45 5 17 5.45 17 6V9H9V9.5L10.13 10.71C10.31 10.9 10.54 11 10.79 11H38C39.65 11 41 12.35 41 14V34C41 35.65 39.65 37 38 37H14C12.35 37 11 35.65 11 34V16C11 15.45 10.55 15 10 15C9.45 15 9 15.45 9 16V34C9 36.76 11.24 39 14 39H38C40.76 39 43 36.76 43 34V14C43 11.24 40.76 9 38 9Z" fill="current"/>
<path d="M36 21C36.55 21 37 20.55 37 20C37 19.45 36.55 19 36 19H16C15.45 19 15 19.45 15 20C15 20.55 15.45 21 16 21H36Z" fill="current"/>
</svg>
