<svg width="24" height="24" viewBox="0 0 24 24" fill="none" xmlns="http://www.w3.org/2000/svg">
<g>
<path d="M16 8.99994C16 5.88994 13.15 3.43994 9.93 4.10994C8.02 4.50994 6.49 6.06994 6.1 7.97994C5.71 9.88994 6.46 11.6699 7.78 12.7899C5.54 13.9599 4 16.2999 4 18.9999V19.9999H6V19.3099C6 17.6999 6.66 16.1199 7.92 15.1099C9.33 13.9799 11.07 13.7199 12.67 14.2899L13.61 14.6199L13.83 13.9999C14.09 13.2599 14.51 12.6099 14.99 11.9799C15.62 11.1499 16 10.1199 16 8.98994V8.99994ZM8 8.99994C8 7.34994 9.35 5.99994 11 5.99994C12.65 5.99994 14 7.34994 14 8.99994C14 10.6499 12.65 11.9999 11 11.9999C9.35 11.9999 8 10.6499 8 8.99994Z" fill="#0046FF"/><path d="M19.5 16.08L19.12 15.41C19.26 15.17 19.18 14.87 18.94 14.73L18.07 14.23C17.83 14.09 17.53 14.17 17.39 14.41H16.62C16.48 14.17 16.18 14.09 15.94 14.23L15.07 14.73C14.83 14.87 14.75 15.17 14.89 15.41L14.51 16.08C14.23 16.08 14.01 16.3 14.01 16.58V17.58C14.01 17.86 14.23 18.08 14.51 18.08L14.89 18.75C14.75 18.99 14.83 19.29 15.07 19.43L15.94 19.93C16.18 20.07 16.49 19.99 16.62 19.75H17.39C17.53 19.99 17.83 20.07 18.07 19.93L18.94 19.43C19.18 19.29 19.26 18.99 19.12 18.75L19.5 18.08C19.78 18.08 20 17.86 20 17.58V16.58C20 16.3 19.78 16.08 19.5 16.08ZM17.5 17.95C17.02 18.23 16.41 18.06 16.13 17.58C15.85 17.1 16.02 16.49 16.5 16.21C16.98 15.93 17.59 16.1 17.87 16.58C18.15 17.06 17.98 17.67 17.5 17.95Z" fill="current"/>
</g>
</svg>
