<svg width="15" height="15" viewBox="0 0 15 15" fill="none" xmlns="http://www.w3.org/2000/svg">
<path d="M8.49862 14H3.49862C3.21862 14 2.99862 13.78 2.99862 13.5V1.5C2.99862 1.22 3.21862 1 3.49862 1H8.49862C8.77862 1 8.99862 0.78 8.99862 0.5C8.99862 0.22 8.77862 0 8.49862 0H0.428621C0.00862053 0 -0.161379 0.55 0.188621 0.78L1.99862 1.99V13.5C1.99862 14.33 2.66862 15 3.49862 15H8.49862C8.77862 15 8.99862 14.78 8.99862 14.5C8.99862 14.22 8.77862 14 8.49862 14Z" fill="white"/>
<path d="M14.96 7.69C15.01 7.57 15.01 7.43 14.96 7.31C14.93 7.25 14.9 7.19 14.85 7.15L10.85 3.15C10.65 2.95 10.34 2.95 10.14 3.15C9.94 3.35 9.94 3.66 10.14 3.86L13.29 7.01H6.5C6.22 7.01 6 7.23 6 7.51C6 7.79 6.22 8.01 6.5 8.01H13.29L10.14 11.16C9.94 11.36 9.94 11.67 10.14 11.87C10.24 11.97 10.37 12.02 10.49 12.02C10.61 12.02 10.75 11.97 10.84 11.87L14.84 7.87C14.84 7.87 14.92 7.77 14.95 7.71L14.96 7.69Z" fill="white"/>
</svg>
