<svg width="24" height="24" viewBox="0 0 24 24" fill="none" xmlns="http://www.w3.org/2000/svg">
<path d="M11.5014 19C7.26141 19 3.70141 15.18 2.37141 13.54C1.88141 12.94 1.88141 12.06 2.37141 11.46C3.70141 9.82 7.26141 6 11.5014 6C15.7414 6 19.3014 9.82 20.6314 11.46C21.1214 12.06 21.1214 12.94 20.6314 13.54C19.3014 15.18 15.7414 19 11.5014 19ZM11.5014 7C7.69141 7 4.39141 10.56 3.14141 12.09C2.95141 12.32 2.95141 12.67 3.14141 12.91C4.38141 14.44 7.69141 18 11.5014 18C15.3114 18 18.6114 14.44 19.8614 12.91C20.0514 12.68 20.0514 12.33 19.8614 12.09C18.6214 10.56 15.3114 7 11.5014 7Z" fill="#222222"/>
<path d="M11.5014 19C7.26141 19 3.70141 15.18 2.37141 13.54C1.88141 12.94 1.88141 12.06 2.37141 11.46C3.70141 9.82 7.26141 6 11.5014 6C15.7414 6 19.3014 9.82 20.6314 11.46C21.1214 12.06 21.1214 12.94 20.6314 13.54C19.3014 15.18 15.7414 19 11.5014 19ZM11.5014 7C7.69141 7 4.39141 10.56 3.14141 12.09C2.95141 12.32 2.95141 12.67 3.14141 12.91C4.38141 14.44 7.69141 18 11.5014 18C15.3114 18 18.6114 14.44 19.8614 12.91C20.0514 12.68 20.0514 12.33 19.8614 12.09C18.6214 10.56 15.3114 7 11.5014 7Z" fill="black" fill-opacity="0.2"/>
<path d="M11.5014 19C7.26141 19 3.70141 15.18 2.37141 13.54C1.88141 12.94 1.88141 12.06 2.37141 11.46C3.70141 9.82 7.26141 6 11.5014 6C15.7414 6 19.3014 9.82 20.6314 11.46C21.1214 12.06 21.1214 12.94 20.6314 13.54C19.3014 15.18 15.7414 19 11.5014 19ZM11.5014 7C7.69141 7 4.39141 10.56 3.14141 12.09C2.95141 12.32 2.95141 12.67 3.14141 12.91C4.38141 14.44 7.69141 18 11.5014 18C15.3114 18 18.6114 14.44 19.8614 12.91C20.0514 12.68 20.0514 12.33 19.8614 12.09C18.6214 10.56 15.3114 7 11.5014 7Z" fill="black" fill-opacity="0.2"/>
<path d="M11.5014 19C7.26141 19 3.70141 15.18 2.37141 13.54C1.88141 12.94 1.88141 12.06 2.37141 11.46C3.70141 9.82 7.26141 6 11.5014 6C15.7414 6 19.3014 9.82 20.6314 11.46C21.1214 12.06 21.1214 12.94 20.6314 13.54C19.3014 15.18 15.7414 19 11.5014 19ZM11.5014 7C7.69141 7 4.39141 10.56 3.14141 12.09C2.95141 12.32 2.95141 12.67 3.14141 12.91C4.38141 14.44 7.69141 18 11.5014 18C15.3114 18 18.6114 14.44 19.8614 12.91C20.0514 12.68 20.0514 12.33 19.8614 12.09C18.6214 10.56 15.3114 7 11.5014 7Z" fill="black" fill-opacity="0.2"/>
<path d="M11.5014 19C7.26141 19 3.70141 15.18 2.37141 13.54C1.88141 12.94 1.88141 12.06 2.37141 11.46C3.70141 9.82 7.26141 6 11.5014 6C15.7414 6 19.3014 9.82 20.6314 11.46C21.1214 12.06 21.1214 12.94 20.6314 13.54C19.3014 15.18 15.7414 19 11.5014 19ZM11.5014 7C7.69141 7 4.39141 10.56 3.14141 12.09C2.95141 12.32 2.95141 12.67 3.14141 12.91C4.38141 14.44 7.69141 18 11.5014 18C15.3114 18 18.6114 14.44 19.8614 12.91C20.0514 12.68 20.0514 12.33 19.8614 12.09C18.6214 10.56 15.3114 7 11.5014 7Z" fill="black" fill-opacity="0.2"/>
<path d="M11.5014 19C7.26141 19 3.70141 15.18 2.37141 13.54C1.88141 12.94 1.88141 12.06 2.37141 11.46C3.70141 9.82 7.26141 6 11.5014 6C15.7414 6 19.3014 9.82 20.6314 11.46C21.1214 12.06 21.1214 12.94 20.6314 13.54C19.3014 15.18 15.7414 19 11.5014 19ZM11.5014 7C7.69141 7 4.39141 10.56 3.14141 12.09C2.95141 12.32 2.95141 12.67 3.14141 12.91C4.38141 14.44 7.69141 18 11.5014 18C15.3114 18 18.6114 14.44 19.8614 12.91C20.0514 12.68 20.0514 12.33 19.8614 12.09C18.6214 10.56 15.3114 7 11.5014 7Z" fill="black" fill-opacity="0.2"/>
<path d="M11.5 16C9.57 16 8 14.43 8 12.5C8 10.57 9.57 9 11.5 9C13.43 9 15 10.57 15 12.5C15 14.43 13.43 16 11.5 16ZM11.5 10C10.12 10 9 11.12 9 12.5C9 13.88 10.12 15 11.5 15C12.88 15 14 13.88 14 12.5C14 11.12 12.88 10 11.5 10Z" fill="#222222"/>
<path d="M11.5 16C9.57 16 8 14.43 8 12.5C8 10.57 9.57 9 11.5 9C13.43 9 15 10.57 15 12.5C15 14.43 13.43 16 11.5 16ZM11.5 10C10.12 10 9 11.12 9 12.5C9 13.88 10.12 15 11.5 15C12.88 15 14 13.88 14 12.5C14 11.12 12.88 10 11.5 10Z" fill="black" fill-opacity="0.2"/>
<path d="M11.5 16C9.57 16 8 14.43 8 12.5C8 10.57 9.57 9 11.5 9C13.43 9 15 10.57 15 12.5C15 14.43 13.43 16 11.5 16ZM11.5 10C10.12 10 9 11.12 9 12.5C9 13.88 10.12 15 11.5 15C12.88 15 14 13.88 14 12.5C14 11.12 12.88 10 11.5 10Z" fill="black" fill-opacity="0.2"/>
<path d="M11.5 16C9.57 16 8 14.43 8 12.5C8 10.57 9.57 9 11.5 9C13.43 9 15 10.57 15 12.5C15 14.43 13.43 16 11.5 16ZM11.5 10C10.12 10 9 11.12 9 12.5C9 13.88 10.12 15 11.5 15C12.88 15 14 13.88 14 12.5C14 11.12 12.88 10 11.5 10Z" fill="black" fill-opacity="0.2"/>
<path d="M11.5 16C9.57 16 8 14.43 8 12.5C8 10.57 9.57 9 11.5 9C13.43 9 15 10.57 15 12.5C15 14.43 13.43 16 11.5 16ZM11.5 10C10.12 10 9 11.12 9 12.5C9 13.88 10.12 15 11.5 15C12.88 15 14 13.88 14 12.5C14 11.12 12.88 10 11.5 10Z" fill="black" fill-opacity="0.2"/>
<path d="M11.5 16C9.57 16 8 14.43 8 12.5C8 10.57 9.57 9 11.5 9C13.43 9 15 10.57 15 12.5C15 14.43 13.43 16 11.5 16ZM11.5 10C10.12 10 9 11.12 9 12.5C9 13.88 10.12 15 11.5 15C12.88 15 14 13.88 14 12.5C14 11.12 12.88 10 11.5 10Z" fill="black" fill-opacity="0.2"/>
</svg>
