<svg width="16" height="16" viewBox="0 0 16 16" fill="none" xmlns="http://www.w3.org/2000/svg">
<path d="M0 4C0 1.79086 1.79086 0 4 0H12C14.2091 0 16 1.79086 16 4V12C16 14.2091 14.2091 16 12 16H4C1.79086 16 0 14.2091 0 12V4Z" fill="#0046FF"/>
<path d="M7.49584 9.99002C7.36606 9.99002 7.23627 9.94015 7.14642 9.8404L5.14975 7.84539C4.95008 7.65586 4.95008 7.33666 5.14975 7.14713C5.34942 6.95761 5.6589 6.94763 5.85857 7.14713L7.50582 8.79302L10.1414 6.14963C10.3411 5.95012 10.6506 5.95012 10.8502 6.14963C11.0499 6.34913 11.0499 6.65835 10.8502 6.85786L7.85524 9.85037C7.75541 9.95012 7.62562 10 7.50582 10L7.49584 9.99002Z" fill="white"/>
</svg>
