<svg width="28" height="26" viewBox="0 0 28 26" fill="none" xmlns="http://www.w3.org/2000/svg">
<path fill-rule="evenodd" clip-rule="evenodd" d="M11.1534 9.10254C10.3278 8.30254 10.2465 7.0326 10.4337 5.89832C10.4774 5.63407 10.5 5.36305 10.5 5.08696C10.5 2.27743 8.14844 0 5.25 0C2.35156 0 0 2.27743 0 5.08696C0 7.89648 2.35156 10.1739 5.25 10.1739C5.67611 10.1739 6.0931 10.1248 6.48958 10.0315C7.49895 9.79461 8.63638 9.86029 9.38088 10.5819L9.77047 10.9595C9.99209 11.1743 10.1172 11.4697 10.1172 11.7784V17.5379C10.1172 18.0017 9.92914 18.4458 9.59599 18.7686C9.05968 19.2883 8.24905 19.3576 7.50962 19.2531C7.34324 19.2296 7.17306 19.2174 7 19.2174C5.06771 19.2174 3.5 20.7359 3.5 22.6087C3.5 24.4815 5.06771 26 7 26C8.93229 26 10.5 24.4815 10.5 22.6087C10.5 22.4715 10.4915 22.3361 10.4751 22.2032C10.4085 21.6646 10.5011 21.088 10.8909 20.7104C11.1371 20.4718 11.4664 20.3384 11.8092 20.3384H18.4825C19.8766 20.3384 21.0068 19.2083 21.0068 17.8141V12.1105C21.0068 11.6532 21.1737 11.2117 21.4761 10.8687C22.002 10.2723 22.8485 10.1139 23.642 10.1651C23.7328 10.1709 23.8244 10.1739 23.9167 10.1739C26.1725 10.1739 28 8.40264 28 6.21739C28 4.03214 26.1725 2.26087 23.9167 2.26087C21.6608 2.26087 19.8333 4.03214 19.8333 6.21739C19.8333 6.83199 19.9782 7.41382 20.2362 7.93273C20.4762 8.41549 20.4857 9.01408 20.1291 9.41847C19.9222 9.65311 19.6245 9.78753 19.3117 9.78753H12.8447C12.2134 9.78753 11.6068 9.54187 11.1534 9.10254Z" fill="current"/>
</svg>
