<svg width="48" height="48" viewBox="0 0 48 48" fill="none" xmlns="http://www.w3.org/2000/svg">
<path d="M31.71 16.29C31.32 15.9 30.69 15.9 30.3 16.29L26.03 20.56C25.44 20.21 24.75 19.99 24.01 19.99C21.8 19.99 20.01 21.78 20.01 23.99C20.01 26.2 21.8 27.99 24.01 27.99C26.22 27.99 28.01 26.2 28.01 23.99C28.01 23.25 27.79 22.57 27.44 21.97L31.71 17.7C32.1 17.31 32.1 16.68 31.71 16.29ZM24 26C22.9 26 22 25.1 22 24C22 22.9 22.9 22 24 22C25.1 22 26 22.9 26 24C26 25.1 25.1 26 24 26Z" fill="current"/>
<path d="M18 33C18 33.55 18.45 34 19 34H29C29.55 34 30 33.55 30 33C30 32.45 29.55 32 29 32H19C18.45 32 18 32.45 18 33Z" fill="current"/>
<path d="M24 6H10V6.5L11.21 7.71C11.4 7.9 11.65 8 11.92 8H24.01C32.83 8 40.01 15.18 40.01 24C40.01 32.82 32.83 40 24.01 40C15.19 40 8.01001 32.82 8.01001 24C8.01001 20.22 9.36001 16.54 11.82 13.65C12.18 13.23 12.13 12.6 11.71 12.24C11.29 11.88 10.66 11.93 10.3 12.35C7.53001 15.6 6.01001 19.74 6.01001 24C6.01001 33.93 14.09 42 24.01 42C33.93 42 42.01 33.93 42.01 24C42.01 14.07 33.92 6 24 6Z" fill="current"/>
</svg>
