<svg width="11" height="9" viewBox="0 0 11 9" fill="none" xmlns="http://www.w3.org/2000/svg">
<path d="M0.0099802 4.50499C0.0099802 4.63485 0.0598803 4.76471 0.159681 4.85461L4.1517 8.85017C4.34132 9.04994 4.66068 9.04994 4.8503 8.85017C5.03992 8.65039 5.0499 8.34073 4.8503 8.15094L1.20759 4.50499L4.8503 0.859045C5.0499 0.659267 5.0499 0.349611 4.8503 0.149833C4.6507 -0.0499449 4.34132 -0.0499449 4.14172 0.149833L0.149701 4.14539C0.0499001 4.24528 0 4.37514 0 4.495L0.0099802 4.50499Z" fill="#888888"/>
<path d="M6.00998 4.50499C6.00998 4.63485 6.05988 4.76471 6.15968 4.85461L10.1517 8.85017C10.3413 9.04994 10.6607 9.04994 10.8503 8.85017C11.0399 8.65039 11.0499 8.34073 10.8503 8.15094L7.20759 4.50499L10.8503 0.859045C11.0499 0.659267 11.0499 0.349611 10.8503 0.149833C10.6507 -0.0499449 10.3413 -0.0499449 10.1417 0.149833L6.1497 4.14539C6.0499 4.24528 6 4.37514 6 4.495L6.00998 4.50499Z" fill="#888888"/>
</svg>
