<svg width="14" height="15" viewBox="0 0 14 15" fill="none" xmlns="http://www.w3.org/2000/svg">
<path d="M7.71 7.50023L10.85 4.35023C11.05 4.15023 11.05 3.84023 10.85 3.64023C10.65 3.44023 10.34 3.44023 10.14 3.64023L6.99 6.79023L3.85 3.65023C3.66 3.45023 3.34 3.45023 3.15 3.65023C2.96 3.85023 2.95 4.16023 3.15 4.35023L6.3 7.50023L3.15 10.6502C2.95 10.8502 2.95 11.1602 3.15 11.3602C3.25 11.4602 3.38 11.5102 3.5 11.5102C3.62 11.5102 3.76 11.4602 3.85 11.3602L7 8.21023L10.15 11.3602C10.25 11.4602 10.38 11.5102 10.5 11.5102C10.62 11.5102 10.76 11.4602 10.85 11.3602C11.05 11.1602 11.05 10.8502 10.85 10.6502L7.7 7.50023H7.71Z" fill="white"/>
</svg>
