<svg width="12" height="12" viewBox="0 0 12 12" fill="none" xmlns="http://www.w3.org/2000/svg">
<path d="M5.99789 6.0001C5.99789 6.1201 5.95789 6.2401 5.86789 6.3401L0.867895 11.8401C0.677895 12.0401 0.367895 12.0601 0.157895 11.8701C-0.0421053 11.6801 -0.0521053 11.3701 0.127895 11.1601L4.81789 6.0001L0.127895 0.840103C-0.0521053 0.640103 -0.0421053 0.320103 0.157895 0.130103C0.357895 -0.0598965 0.677895 -0.039897 0.867895 0.160103L5.86789 5.6601C5.95789 5.7501 5.99789 5.8801 5.99789 6.0001Z" fill="current"/>
<path d="M11.9957 6.0001C11.9957 6.1201 11.9557 6.2401 11.8657 6.3401L6.8657 11.8401C6.6757 12.0401 6.3657 12.0601 6.1557 11.8701C5.9557 11.6801 5.9457 11.3701 6.1257 11.1601L10.8157 6.0001L6.1257 0.840103C5.9457 0.640103 5.9557 0.320103 6.1557 0.130103C6.3557 -0.0598965 6.6757 -0.039897 6.8657 0.160103L11.8657 5.6601C11.9557 5.7501 11.9957 5.8801 11.9957 6.0001Z" fill="current"/>
</svg>
