<svg width="48" height="48" viewBox="0 0 48 48" fill="none" xmlns="http://www.w3.org/2000/svg">
<path d="M38.85 26.01C38.95 25.29 39 24.63 39 24C39 23.37 38.95 22.71 38.85 21.99L41.06 18.65C41.27 18.33 41.28 17.93 41.09 17.6L38.09 12.4C37.9 12.07 37.55 11.87 37.16 11.9L33.18 12.14C32.12 11.32 30.95 10.65 29.68 10.13L27.89 6.55C27.72 6.21 27.37 6 27 6H21C20.62 6 20.27 6.21 20.11 6.55L18.32 10.13C17.05 10.65 15.88 11.32 14.82 12.14L10.84 11.9C10.46 11.87 10.1 12.07 9.91003 12.4L6.91003 17.6C6.72003 17.93 6.73003 18.33 6.94003 18.65L9.15002 21.99C9.05002 22.71 9.00003 23.37 9.00003 24C9.00003 24.63 9.05002 25.29 9.15002 26.01L6.94003 29.35C6.73003 29.67 6.72003 30.07 6.91003 30.4L9.91003 35.6C10.1 35.93 10.45 36.13 10.84 36.1L14.82 35.86C15.88 36.68 17.05 37.35 18.32 37.87L20.11 41.45C20.28 41.79 20.63 42 21 42H27C27.38 42 27.73 41.79 27.89 41.45L29.68 37.87C30.95 37.35 32.12 36.68 33.18 35.86L37.16 36.1C37.54 36.13 37.9 35.93 38.09 35.6L41.09 30.4C41.28 30.07 41.27 29.67 41.06 29.35L38.85 26.01ZM36.67 34.06L32.93 33.84C32.68 33.82 32.43 33.9 32.24 34.06C31.17 34.93 29.95 35.63 28.62 36.14C28.39 36.23 28.19 36.4 28.08 36.63L26.4 40H21.64L19.96 36.63C19.85 36.41 19.65 36.23 19.42 36.14C18.09 35.63 16.87 34.93 15.8 34.06C15.61 33.9 15.36 33.82 15.11 33.84L11.37 34.06L8.99004 29.93L11.07 26.78C11.21 26.57 11.26 26.32 11.22 26.07C11.1 25.31 11.04 24.63 11.04 23.99C11.04 23.35 11.1 22.67 11.22 21.91C11.26 21.66 11.21 21.41 11.07 21.2L8.99004 18.05L11.37 13.92L15.11 14.14C15.36 14.16 15.61 14.08 15.8 13.92C16.87 13.05 18.09 12.35 19.42 11.84C19.65 11.75 19.85 11.58 19.96 11.35L21.64 7.98H26.4L28.08 11.35C28.19 11.57 28.39 11.75 28.62 11.84C29.95 12.35 31.17 13.05 32.24 13.92C32.43 14.08 32.68 14.16 32.93 14.14L36.67 13.92L39.05 18.05L36.97 21.2C36.83 21.41 36.78 21.66 36.82 21.91C36.94 22.67 37 23.35 37 23.99C37 24.63 36.94 25.31 36.82 26.07C36.78 26.32 36.83 26.57 36.97 26.78L39.05 29.93L36.67 34.06Z" fill="current"/>
<path d="M24 18H20V18.5L21.21 19.71C21.4 19.9 21.65 20 21.92 20H24.01C26.22 20 28.01 21.79 28.01 24C28.01 26.21 26.22 28 24.01 28C21.8 28 20.01 26.21 20.01 24C20.01 23.45 19.56 23 19.01 23C18.46 23 18.01 23.45 18.01 24C18.01 27.31 20.7 30 24.01 30C27.32 30 30.01 27.31 30.01 24C30.01 20.69 27.32 18 24.01 18H24Z" fill="current"/>
</svg>
