<svg width="14" height="14" viewBox="0 0 14 14" fill="none" xmlns="http://www.w3.org/2000/svg">
<path d="M11.5 13H7.5C6.67 13 6 12.33 6 11.5V7.5C6 6.67 6.67 6 7.5 6H11.5C12.33 6 13 6.67 13 7.5V11.5C13 12.33 12.33 13 11.5 13ZM7.5 7C7.22 7 7 7.22 7 7.5V11.5C7 11.78 7.22 12 7.5 12H11.5C11.78 12 12 11.78 12 11.5V7.5C12 7.22 11.78 7 11.5 7H7.5Z" fill="#666666"/>
<path d="M4.5 11H3.3C2.58 11 2 10.42 2 9.7V3.3C2 2.58 2.58 2 3.3 2H9.7C10.42 2 11 2.58 11 3.3V4.5C11 4.78 10.78 5 10.5 5C10.22 5 10 4.78 10 4.5V3.3C10 3.13 9.87 3 9.7 3H3.3C3.13 3 3 3.13 3 3.3V9.7C3 9.87 3.13 10 3.3 10H4.5C4.78 10 5 10.22 5 10.5C5 10.78 4.78 11 4.5 11Z" fill="#666666"/>
</svg>
