<svg width="48" height="48" viewBox="0 0 48 48" fill="none" xmlns="http://www.w3.org/2000/svg">
<path d="M39.71 36.29L35.71 32.29C35.32 31.9 34.69 31.9 34.3 32.29C33.91 32.68 33.91 33.31 34.3 33.7L36.59 35.99H30C29.45 35.99 29 36.44 29 36.99C29 37.54 29.45 37.99 30 37.99H36.59L34.3 40.28C33.91 40.67 33.91 41.3 34.3 41.69C34.5 41.89 34.75 41.98 35.01 41.98C35.27 41.98 35.52 41.88 35.72 41.69L39.72 37.69C40.11 37.3 40.11 36.67 39.72 36.28L39.71 36.29Z" fill="current"/>
<path d="M32.32 29.5C32.6 29.02 32.43 28.41 31.95 28.13C30.95 27.56 29.9 27.1 28.82 26.76C31.91 25.06 34 21.77 34 18C34 12.49 29.51 8 24 8H14V8.5L15.21 9.71C15.4 9.9 15.65 10 15.92 10H24.01C28.42 10 32.01 13.59 32.01 18C32.01 22.41 28.42 26 24.01 26C19.6 26 16.01 22.41 16.01 18C16.01 17.1 16.17 16.21 16.48 15.33C16.66 14.81 16.39 14.24 15.87 14.05C15.35 13.87 14.78 14.14 14.59 14.66C14.21 15.75 14.01 16.87 14.01 17.99C14.01 21.76 16.11 25.04 19.19 26.75C13.08 28.7 8.50001 34.22 8.06001 40.93C8.02001 41.48 8.44001 41.96 8.99001 41.99C9.01001 41.99 9.03001 41.99 9.06001 41.99C9.58001 41.99 10.02 41.58 10.06 41.06C10.54 33.73 16.67 27.99 24.01 27.99C26.44 27.99 28.84 28.64 30.96 29.86C31.44 30.14 32.05 29.97 32.33 29.49L32.32 29.5Z" fill="current"/>
</svg>
