<svg width="48" height="48" viewBox="0 0 48 48" fill="none" xmlns="http://www.w3.org/2000/svg">
<path d="M28.82 26.76C31.91 25.06 34 21.77 34 18C34 12.49 29.51 8 24 8H14V8.5L15.21 9.71C15.4 9.9 15.65 10 15.92 10H24.01C28.42 10 32.01 13.59 32.01 18C32.01 22.41 28.42 26 24.01 26C19.6 26 16.01 22.41 16.01 18C16.01 17.1 16.17 16.21 16.48 15.33C16.66 14.81 16.39 14.24 15.87 14.05C15.35 13.87 14.78 14.14 14.59 14.66C14.21 15.75 14.01 16.87 14.01 17.99C14.01 21.76 16.11 25.04 19.19 26.75C13.08 28.7 8.50001 34.22 8.06001 40.93C8.02001 41.48 8.44001 41.96 8.99001 41.99C9.54001 42.02 10.02 41.61 10.05 41.06C10.53 33.73 16.66 27.99 24 27.99C31.34 27.99 37.47 33.73 37.95 41.06C37.99 41.549 38.42 41.99 38.95 41.99C38.97 41.99 38.99 41.99 39.02 41.99C39.57 41.95 39.99 41.48 39.95 40.93C39.51 34.23 34.93 28.7 28.82 26.75V26.76Z" fill="current"/>
</svg>
