<svg width="13" height="12" viewBox="0 0 13 12" fill="none" xmlns="http://www.w3.org/2000/svg">
<path fill-rule="evenodd" clip-rule="evenodd" d="M8.19922 5C8.19922 6.65685 6.85607 8 5.19922 8C3.54236 8 2.19922 6.65685 2.19922 5C2.19922 3.34315 3.54236 2 5.19922 2C6.85607 2 8.19922 3.34315 8.19922 5ZM7.65204 8.15993C6.9747 8.68646 6.12357 9 5.19922 9C2.99008 9 1.19922 7.20914 1.19922 5C1.19922 2.79086 2.99008 1 5.19922 1C7.40836 1 9.19922 2.79086 9.19922 5C9.19922 5.92436 8.88568 6.77548 8.35915 7.45282L11.0528 10.1464C11.248 10.3417 11.248 10.6583 11.0528 10.8536C10.8575 11.0488 10.5409 11.0488 10.3457 10.8536L7.65204 8.15993Z" fill="white"/>
</svg>
