<svg width="48" height="48" viewBox="0 0 48 48" fill="none" xmlns="http://www.w3.org/2000/svg">
<path d="M39.71 38.29L34.28 32.86C36.59 30.22 38 26.78 38 23C38 14.73 31.27 8 23 8H8V8.5L9.13 9.71C9.31 9.9 9.54 10 9.79 10H23C30.17 10 36 15.83 36 23C36 30.17 30.17 36 23 36C15.83 36 10 30.17 10 23C10 20.33 10.81 17.76 12.34 15.57C12.66 15.12 12.55 14.49 12.09 14.18C11.64 13.86 11.01 13.97 10.7 14.43C8.93 16.96 8 19.92 8 23C8 31.27 14.73 38 23 38C26.78 38 30.22 36.59 32.86 34.28L38.29 39.71C38.49 39.91 38.74 40 39 40C39.26 40 39.51 39.9 39.71 39.71C40.1 39.32 40.1 38.69 39.71 38.3V38.29Z" fill="current"/>
</svg>
