<svg width="24" height="24" viewBox="0 0 24 24" fill="none" xmlns="http://www.w3.org/2000/svg">
<path d="M20.5999 3.15C20.3999 2.95 20.0899 2.95 19.8899 3.15L15.7799 7.26C14.3199 6.44 12.8799 6.01 11.4899 6.01C7.24993 6.01 3.68993 9.83 2.35993 11.47C1.86993 12.07 1.86993 12.95 2.35993 13.55C3.01993 14.36 4.32993 15.82 6.01993 17.02L2.88993 20.15C2.68993 20.35 2.68993 20.66 2.88993 20.86C2.98993 20.96 3.11993 21.01 3.23993 21.01C3.35993 21.01 3.49993 20.96 3.58993 20.86L20.5999 3.85C20.7999 3.65 20.7999 3.34 20.5999 3.14V3.15ZM3.13993 12.91C2.94993 12.68 2.94993 12.33 3.13993 12.09C4.37993 10.56 7.68993 7 11.4999 7C12.6399 7 13.8299 7.35 15.0499 7.99L13.4299 9.61C12.8499 9.22 12.1899 9 11.4999 9C9.56993 9 7.99993 10.57 7.99993 12.5C7.99993 13.19 8.21993 13.86 8.60993 14.43L6.74993 16.29C5.07993 15.14 3.77993 13.69 3.13993 12.9V12.91ZM9.32993 13.71C9.11993 13.34 8.99993 12.92 8.99993 12.5C8.99993 11.12 10.1199 10 11.4999 10C11.9199 10 12.3399 10.12 12.7099 10.33L9.32993 13.71Z" fill="#222222"/>
<path d="M20.5999 3.15C20.3999 2.95 20.0899 2.95 19.8899 3.15L15.7799 7.26C14.3199 6.44 12.8799 6.01 11.4899 6.01C7.24993 6.01 3.68993 9.83 2.35993 11.47C1.86993 12.07 1.86993 12.95 2.35993 13.55C3.01993 14.36 4.32993 15.82 6.01993 17.02L2.88993 20.15C2.68993 20.35 2.68993 20.66 2.88993 20.86C2.98993 20.96 3.11993 21.01 3.23993 21.01C3.35993 21.01 3.49993 20.96 3.58993 20.86L20.5999 3.85C20.7999 3.65 20.7999 3.34 20.5999 3.14V3.15ZM3.13993 12.91C2.94993 12.68 2.94993 12.33 3.13993 12.09C4.37993 10.56 7.68993 7 11.4999 7C12.6399 7 13.8299 7.35 15.0499 7.99L13.4299 9.61C12.8499 9.22 12.1899 9 11.4999 9C9.56993 9 7.99993 10.57 7.99993 12.5C7.99993 13.19 8.21993 13.86 8.60993 14.43L6.74993 16.29C5.07993 15.14 3.77993 13.69 3.13993 12.9V12.91ZM9.32993 13.71C9.11993 13.34 8.99993 12.92 8.99993 12.5C8.99993 11.12 10.1199 10 11.4999 10C11.9199 10 12.3399 10.12 12.7099 10.33L9.32993 13.71Z" fill="black" fill-opacity="0.2"/>
<path d="M20.5999 3.15C20.3999 2.95 20.0899 2.95 19.8899 3.15L15.7799 7.26C14.3199 6.44 12.8799 6.01 11.4899 6.01C7.24993 6.01 3.68993 9.83 2.35993 11.47C1.86993 12.07 1.86993 12.95 2.35993 13.55C3.01993 14.36 4.32993 15.82 6.01993 17.02L2.88993 20.15C2.68993 20.35 2.68993 20.66 2.88993 20.86C2.98993 20.96 3.11993 21.01 3.23993 21.01C3.35993 21.01 3.49993 20.96 3.58993 20.86L20.5999 3.85C20.7999 3.65 20.7999 3.34 20.5999 3.14V3.15ZM3.13993 12.91C2.94993 12.68 2.94993 12.33 3.13993 12.09C4.37993 10.56 7.68993 7 11.4999 7C12.6399 7 13.8299 7.35 15.0499 7.99L13.4299 9.61C12.8499 9.22 12.1899 9 11.4999 9C9.56993 9 7.99993 10.57 7.99993 12.5C7.99993 13.19 8.21993 13.86 8.60993 14.43L6.74993 16.29C5.07993 15.14 3.77993 13.69 3.13993 12.9V12.91ZM9.32993 13.71C9.11993 13.34 8.99993 12.92 8.99993 12.5C8.99993 11.12 10.1199 10 11.4999 10C11.9199 10 12.3399 10.12 12.7099 10.33L9.32993 13.71Z" fill="black" fill-opacity="0.2"/>
<path d="M20.5999 3.15C20.3999 2.95 20.0899 2.95 19.8899 3.15L15.7799 7.26C14.3199 6.44 12.8799 6.01 11.4899 6.01C7.24993 6.01 3.68993 9.83 2.35993 11.47C1.86993 12.07 1.86993 12.95 2.35993 13.55C3.01993 14.36 4.32993 15.82 6.01993 17.02L2.88993 20.15C2.68993 20.35 2.68993 20.66 2.88993 20.86C2.98993 20.96 3.11993 21.01 3.23993 21.01C3.35993 21.01 3.49993 20.96 3.58993 20.86L20.5999 3.85C20.7999 3.65 20.7999 3.34 20.5999 3.14V3.15ZM3.13993 12.91C2.94993 12.68 2.94993 12.33 3.13993 12.09C4.37993 10.56 7.68993 7 11.4999 7C12.6399 7 13.8299 7.35 15.0499 7.99L13.4299 9.61C12.8499 9.22 12.1899 9 11.4999 9C9.56993 9 7.99993 10.57 7.99993 12.5C7.99993 13.19 8.21993 13.86 8.60993 14.43L6.74993 16.29C5.07993 15.14 3.77993 13.69 3.13993 12.9V12.91ZM9.32993 13.71C9.11993 13.34 8.99993 12.92 8.99993 12.5C8.99993 11.12 10.1199 10 11.4999 10C11.9199 10 12.3399 10.12 12.7099 10.33L9.32993 13.71Z" fill="black" fill-opacity="0.2"/>
<path d="M20.5999 3.15C20.3999 2.95 20.0899 2.95 19.8899 3.15L15.7799 7.26C14.3199 6.44 12.8799 6.01 11.4899 6.01C7.24993 6.01 3.68993 9.83 2.35993 11.47C1.86993 12.07 1.86993 12.95 2.35993 13.55C3.01993 14.36 4.32993 15.82 6.01993 17.02L2.88993 20.15C2.68993 20.35 2.68993 20.66 2.88993 20.86C2.98993 20.96 3.11993 21.01 3.23993 21.01C3.35993 21.01 3.49993 20.96 3.58993 20.86L20.5999 3.85C20.7999 3.65 20.7999 3.34 20.5999 3.14V3.15ZM3.13993 12.91C2.94993 12.68 2.94993 12.33 3.13993 12.09C4.37993 10.56 7.68993 7 11.4999 7C12.6399 7 13.8299 7.35 15.0499 7.99L13.4299 9.61C12.8499 9.22 12.1899 9 11.4999 9C9.56993 9 7.99993 10.57 7.99993 12.5C7.99993 13.19 8.21993 13.86 8.60993 14.43L6.74993 16.29C5.07993 15.14 3.77993 13.69 3.13993 12.9V12.91ZM9.32993 13.71C9.11993 13.34 8.99993 12.92 8.99993 12.5C8.99993 11.12 10.1199 10 11.4999 10C11.9199 10 12.3399 10.12 12.7099 10.33L9.32993 13.71Z" fill="black" fill-opacity="0.2"/>
<path d="M20.5999 3.15C20.3999 2.95 20.0899 2.95 19.8899 3.15L15.7799 7.26C14.3199 6.44 12.8799 6.01 11.4899 6.01C7.24993 6.01 3.68993 9.83 2.35993 11.47C1.86993 12.07 1.86993 12.95 2.35993 13.55C3.01993 14.36 4.32993 15.82 6.01993 17.02L2.88993 20.15C2.68993 20.35 2.68993 20.66 2.88993 20.86C2.98993 20.96 3.11993 21.01 3.23993 21.01C3.35993 21.01 3.49993 20.96 3.58993 20.86L20.5999 3.85C20.7999 3.65 20.7999 3.34 20.5999 3.14V3.15ZM3.13993 12.91C2.94993 12.68 2.94993 12.33 3.13993 12.09C4.37993 10.56 7.68993 7 11.4999 7C12.6399 7 13.8299 7.35 15.0499 7.99L13.4299 9.61C12.8499 9.22 12.1899 9 11.4999 9C9.56993 9 7.99993 10.57 7.99993 12.5C7.99993 13.19 8.21993 13.86 8.60993 14.43L6.74993 16.29C5.07993 15.14 3.77993 13.69 3.13993 12.9V12.91ZM9.32993 13.71C9.11993 13.34 8.99993 12.92 8.99993 12.5C8.99993 11.12 10.1199 10 11.4999 10C11.9199 10 12.3399 10.12 12.7099 10.33L9.32993 13.71Z" fill="black" fill-opacity="0.2"/>
<path d="M20.6301 11.4601C20.1301 10.8401 19.3101 9.9101 18.2401 8.9901C18.0301 8.8101 17.7201 8.8301 17.5301 9.0401C17.3401 9.2501 17.3701 9.5601 17.5801 9.7501C18.5901 10.6301 19.3701 11.5101 19.8501 12.1001C20.0401 12.3301 20.0401 12.6801 19.8501 12.9201C18.6101 14.4501 15.3001 18.0101 11.4901 18.0101C10.8001 18.0101 10.0701 17.8901 9.33007 17.6401C9.07007 17.5501 8.79007 17.7001 8.70007 17.9601C8.61007 18.2201 8.76007 18.5001 9.02007 18.5901C9.86007 18.8701 10.7001 19.0101 11.5001 19.0101C15.7401 19.0101 19.3001 15.1901 20.6301 13.5501C21.1201 12.9501 21.1201 12.0701 20.6301 11.4701V11.4601Z" fill="#222222"/>
<path d="M20.6301 11.4601C20.1301 10.8401 19.3101 9.9101 18.2401 8.9901C18.0301 8.8101 17.7201 8.8301 17.5301 9.0401C17.3401 9.2501 17.3701 9.5601 17.5801 9.7501C18.5901 10.6301 19.3701 11.5101 19.8501 12.1001C20.0401 12.3301 20.0401 12.6801 19.8501 12.9201C18.6101 14.4501 15.3001 18.0101 11.4901 18.0101C10.8001 18.0101 10.0701 17.8901 9.33007 17.6401C9.07007 17.5501 8.79007 17.7001 8.70007 17.9601C8.61007 18.2201 8.76007 18.5001 9.02007 18.5901C9.86007 18.8701 10.7001 19.0101 11.5001 19.0101C15.7401 19.0101 19.3001 15.1901 20.6301 13.5501C21.1201 12.9501 21.1201 12.0701 20.6301 11.4701V11.4601Z" fill="black" fill-opacity="0.2"/>
<path d="M20.6301 11.4601C20.1301 10.8401 19.3101 9.9101 18.2401 8.9901C18.0301 8.8101 17.7201 8.8301 17.5301 9.0401C17.3401 9.2501 17.3701 9.5601 17.5801 9.7501C18.5901 10.6301 19.3701 11.5101 19.8501 12.1001C20.0401 12.3301 20.0401 12.6801 19.8501 12.9201C18.6101 14.4501 15.3001 18.0101 11.4901 18.0101C10.8001 18.0101 10.0701 17.8901 9.33007 17.6401C9.07007 17.5501 8.79007 17.7001 8.70007 17.9601C8.61007 18.2201 8.76007 18.5001 9.02007 18.5901C9.86007 18.8701 10.7001 19.0101 11.5001 19.0101C15.7401 19.0101 19.3001 15.1901 20.6301 13.5501C21.1201 12.9501 21.1201 12.0701 20.6301 11.4701V11.4601Z" fill="black" fill-opacity="0.2"/>
<path d="M20.6301 11.4601C20.1301 10.8401 19.3101 9.9101 18.2401 8.9901C18.0301 8.8101 17.7201 8.8301 17.5301 9.0401C17.3401 9.2501 17.3701 9.5601 17.5801 9.7501C18.5901 10.6301 19.3701 11.5101 19.8501 12.1001C20.0401 12.3301 20.0401 12.6801 19.8501 12.9201C18.6101 14.4501 15.3001 18.0101 11.4901 18.0101C10.8001 18.0101 10.0701 17.8901 9.33007 17.6401C9.07007 17.5501 8.79007 17.7001 8.70007 17.9601C8.61007 18.2201 8.76007 18.5001 9.02007 18.5901C9.86007 18.8701 10.7001 19.0101 11.5001 19.0101C15.7401 19.0101 19.3001 15.1901 20.6301 13.5501C21.1201 12.9501 21.1201 12.0701 20.6301 11.4701V11.4601Z" fill="black" fill-opacity="0.2"/>
<path d="M20.6301 11.4601C20.1301 10.8401 19.3101 9.9101 18.2401 8.9901C18.0301 8.8101 17.7201 8.8301 17.5301 9.0401C17.3401 9.2501 17.3701 9.5601 17.5801 9.7501C18.5901 10.6301 19.3701 11.5101 19.8501 12.1001C20.0401 12.3301 20.0401 12.6801 19.8501 12.9201C18.6101 14.4501 15.3001 18.0101 11.4901 18.0101C10.8001 18.0101 10.0701 17.8901 9.33007 17.6401C9.07007 17.5501 8.79007 17.7001 8.70007 17.9601C8.61007 18.2201 8.76007 18.5001 9.02007 18.5901C9.86007 18.8701 10.7001 19.0101 11.5001 19.0101C15.7401 19.0101 19.3001 15.1901 20.6301 13.5501C21.1201 12.9501 21.1201 12.0701 20.6301 11.4701V11.4601Z" fill="black" fill-opacity="0.2"/>
<path d="M20.6301 11.4601C20.1301 10.8401 19.3101 9.9101 18.2401 8.9901C18.0301 8.8101 17.7201 8.8301 17.5301 9.0401C17.3401 9.2501 17.3701 9.5601 17.5801 9.7501C18.5901 10.6301 19.3701 11.5101 19.8501 12.1001C20.0401 12.3301 20.0401 12.6801 19.8501 12.9201C18.6101 14.4501 15.3001 18.0101 11.4901 18.0101C10.8001 18.0101 10.0701 17.8901 9.33007 17.6401C9.07007 17.5501 8.79007 17.7001 8.70007 17.9601C8.61007 18.2201 8.76007 18.5001 9.02007 18.5901C9.86007 18.8701 10.7001 19.0101 11.5001 19.0101C15.7401 19.0101 19.3001 15.1901 20.6301 13.5501C21.1201 12.9501 21.1201 12.0701 20.6301 11.4701V11.4601Z" fill="black" fill-opacity="0.2"/>
<path d="M13.9701 12.7601C13.8501 13.9301 12.9401 14.8401 11.7601 14.9701C11.4901 15.0001 11.2901 15.2501 11.3201 15.5201C11.3501 15.7801 11.5601 15.9701 11.8201 15.9701C11.8401 15.9701 11.8601 15.9701 11.8701 15.9701C13.5201 15.7901 14.7901 14.5201 14.9601 12.8801C14.9901 12.6101 14.7901 12.3601 14.5201 12.3301C14.2401 12.3001 14.0001 12.5001 13.9701 12.7701V12.7601Z" fill="#222222"/>
<path d="M13.9701 12.7601C13.8501 13.9301 12.9401 14.8401 11.7601 14.9701C11.4901 15.0001 11.2901 15.2501 11.3201 15.5201C11.3501 15.7801 11.5601 15.9701 11.8201 15.9701C11.8401 15.9701 11.8601 15.9701 11.8701 15.9701C13.5201 15.7901 14.7901 14.5201 14.9601 12.8801C14.9901 12.6101 14.7901 12.3601 14.5201 12.3301C14.2401 12.3001 14.0001 12.5001 13.9701 12.7701V12.7601Z" fill="black" fill-opacity="0.2"/>
<path d="M13.9701 12.7601C13.8501 13.9301 12.9401 14.8401 11.7601 14.9701C11.4901 15.0001 11.2901 15.2501 11.3201 15.5201C11.3501 15.7801 11.5601 15.9701 11.8201 15.9701C11.8401 15.9701 11.8601 15.9701 11.8701 15.9701C13.5201 15.7901 14.7901 14.5201 14.9601 12.8801C14.9901 12.6101 14.7901 12.3601 14.5201 12.3301C14.2401 12.3001 14.0001 12.5001 13.9701 12.7701V12.7601Z" fill="black" fill-opacity="0.2"/>
<path d="M13.9701 12.7601C13.8501 13.9301 12.9401 14.8401 11.7601 14.9701C11.4901 15.0001 11.2901 15.2501 11.3201 15.5201C11.3501 15.7801 11.5601 15.9701 11.8201 15.9701C11.8401 15.9701 11.8601 15.9701 11.8701 15.9701C13.5201 15.7901 14.7901 14.5201 14.9601 12.8801C14.9901 12.6101 14.7901 12.3601 14.5201 12.3301C14.2401 12.3001 14.0001 12.5001 13.9701 12.7701V12.7601Z" fill="black" fill-opacity="0.2"/>
<path d="M13.9701 12.7601C13.8501 13.9301 12.9401 14.8401 11.7601 14.9701C11.4901 15.0001 11.2901 15.2501 11.3201 15.5201C11.3501 15.7801 11.5601 15.9701 11.8201 15.9701C11.8401 15.9701 11.8601 15.9701 11.8701 15.9701C13.5201 15.7901 14.7901 14.5201 14.9601 12.8801C14.9901 12.6101 14.7901 12.3601 14.5201 12.3301C14.2401 12.3001 14.0001 12.5001 13.9701 12.7701V12.7601Z" fill="black" fill-opacity="0.2"/>
<path d="M13.9701 12.7601C13.8501 13.9301 12.9401 14.8401 11.7601 14.9701C11.4901 15.0001 11.2901 15.2501 11.3201 15.5201C11.3501 15.7801 11.5601 15.9701 11.8201 15.9701C11.8401 15.9701 11.8601 15.9701 11.8701 15.9701C13.5201 15.7901 14.7901 14.5201 14.9601 12.8801C14.9901 12.6101 14.7901 12.3601 14.5201 12.3301C14.2401 12.3001 14.0001 12.5001 13.9701 12.7701V12.7601Z" fill="black" fill-opacity="0.2"/>
</svg>
