<svg width="48" height="48" viewBox="0 0 48 48" fill="none" xmlns="http://www.w3.org/2000/svg">
<path d="M8 20H4V20.5L5.21 21.71C5.4 21.9 5.65 22 5.92 22H8.01C9.11 22 10.01 22.9 10.01 24C10.01 25.1 9.11 26 8.01 26C6.91 26 6.01 25.1 6.01 24C6.01 23.45 5.56 23 5.01 23C4.46 23 4.01 23.45 4.01 24C4.01 26.21 5.8 28 8.01 28C10.22 28 12.01 26.21 12.01 24C12.01 21.79 10.22 20 8.01 20H8Z" fill="current"/>
<path d="M24 20C21.79 20 20 21.79 20 24C20 26.21 21.79 28 24 28C26.21 28 28 26.21 28 24C28 21.79 26.21 20 24 20ZM24 26C22.9 26 22 25.1 22 24C22 22.9 22.9 22 24 22C25.1 22 26 22.9 26 24C26 25.1 25.1 26 24 26Z" fill="current"/>
<path d="M40 20C37.79 20 36 21.79 36 24C36 26.21 37.79 28 40 28C42.21 28 44 26.21 44 24C44 21.79 42.21 20 40 20ZM40 26C38.9 26 38 25.1 38 24C38 22.9 38.9 22 40 22C41.1 22 42 22.9 42 24C42 25.1 41.1 26 40 26Z" fill="current"/>
</svg>
