<svg width="24" height="24" viewBox="0 0 24 24" fill="none" xmlns="http://www.w3.org/2000/svg">
<path d="M15.0944 9.15739L12.5 11.7555L9.90556 9.15739C9.69601 8.94754 9.36671 8.94754 9.16714 9.15739C8.96757 9.36724 8.95759 9.697 9.16714 9.89686L11.7616 12.495L9.15716 15.1031C8.94761 15.313 8.94761 15.6428 9.15716 15.8426C9.36671 16.0425 9.69601 16.0525 9.89558 15.8426L12.49 13.2445L15.0845 15.8426C15.294 16.0525 15.6233 16.0525 15.8229 15.8426C16.0225 15.6328 16.0324 15.303 15.8229 15.1031L13.2284 12.505L15.8428 9.90685C16.0524 9.697 16.0524 9.36724 15.8428 9.16738C15.6333 8.96752 15.304 8.95753 15.1044 9.16738L15.0944 9.15739Z" fill="current"/>
</svg>
