<svg width="48" height="48" viewBox="0 0 48 48" fill="none" xmlns="http://www.w3.org/2000/svg">
<path d="M39.62 18.22L24.62 6.22001C24.44 6.07001 24.21 6.02 24 6.02L12 6.01001V6.51001L13.21 7.72001C13.4 7.91001 13.65 8.01001 13.92 8.01001H23.66L38.01 19.49V38.01H30.01V32.01C30.01 28.7 27.32 26.01 24.01 26.01C20.7 26.01 18.01 28.7 18.01 32.01V38.01H10.01V19.48L18.21 12.78C18.64 12.43 18.7 11.8 18.35 11.37C18 10.94 17.37 10.88 16.94 11.23L8.37 18.23C8.14 18.42 8 18.7 8 19V39C8 39.55 8.45 40 9 40H19C19.55 40 20 39.55 20 39V32C20 29.79 21.79 28 24 28C26.21 28 28 29.79 28 32V39C28 39.55 28.45 40 29 40H39C39.55 40 40 39.55 40 39V19C40 18.7 39.86 18.41 39.62 18.22Z" fill="current"/>
</svg>
