<svg width="48" height="48" viewBox="0 0 48 48" fill="none" xmlns="http://www.w3.org/2000/svg">
<path d="M43 26H40V22H43C43.55 22 44 21.55 44 21C44 20.45 43.55 20 43 20H40V17C40 12.04 35.96 8 31 8H28V5C28 4.45 27.55 4 27 4C26.45 4 26 4.45 26 5V8H22V5C22 4.45 21.55 4 21 4C20.45 4 20 4.45 20 5V8H8.00001V8.5L9.21001 9.71C9.40001 9.9 9.65001 10 9.92001 10H31.01C34.87 10 38.01 13.14 38.01 17V31C38.01 34.86 34.87 38 31.01 38H17.01C13.15 38 10.01 34.86 10.01 31V17C10.01 16.43 10.09 15.84 10.24 15.25C10.38 14.72 10.06 14.17 9.52001 14.03C8.98001 13.89 8.44001 14.21 8.30001 14.75C8.10001 15.51 8.01001 16.26 8.01001 17V20H5.01001C4.46001 20 4.01001 20.45 4.01001 21C4.01001 21.55 4.46001 22 5.01001 22H8.01001V26H5.01001C4.46001 26 4.01001 26.45 4.01001 27C4.01001 27.55 4.46001 28 5.01001 28H8.01001V31C8.01001 35.96 12.05 40 17.01 40H20.01V43C20.01 43.55 20.46 44 21.01 44C21.56 44 22.01 43.55 22.01 43V40H26.01V43C26.01 43.55 26.46 44 27.01 44C27.56 44 28.01 43.55 28.01 43V40H31.01C35.97 40 40.01 35.96 40.01 31V28H43.01C43.56 28 44.01 27.55 44.01 27C44.01 26.45 43.56 26 43.01 26H43Z" fill="current"/>
<path d="M27 30C28.65 30 30 28.65 30 27V21C30 19.35 28.65 18 27 18H21C19.35 18 18 19.35 18 21V27C18 28.65 19.35 30 21 30H27ZM20 27V21C20 20.45 20.45 20 21 20H27C27.55 20 28 20.45 28 21V27C28 27.55 27.55 28 27 28H21C20.45 28 20 27.55 20 27Z" fill="current"/>
</svg>
