<svg width="11" height="10" viewBox="0 0 11 10" fill="none" xmlns="http://www.w3.org/2000/svg">
<g clip-path="url(#clip0_669_14272)">
<path d="M4 10C3.87 10 3.74 9.95 3.65 9.85L0.65 6.85C0.45 6.65 0.45 6.34 0.65 6.14C0.85 5.94 1.16 5.94 1.36 6.14L3.51 8.29V0.5C3.51 0.22 3.73 0 4.01 0C4.29 0 4.51 0.22 4.51 0.5V9.5C4.51 9.7 4.39 9.88 4.2 9.96C4.14 9.99 4.07 10 4.01 10H4Z" fill="current"/>
<path d="M7 10C6.72 10 6.5 9.78001 6.5 9.50001V0.500011C6.5 0.300011 6.62 0.120011 6.81 0.0400109C7 -0.0399891 7.21 0.0100109 7.35 0.150011L10.35 3.15001C10.55 3.35001 10.55 3.66001 10.35 3.86001C10.15 4.06001 9.84 4.06001 9.64 3.86001L7.49 1.71001V9.50001C7.49 9.78001 7.27 10 6.99 10H7Z" fill="current"/>
</g>
<defs>
<clipPath id="clip0_669_14272">
<rect width="10" height="10" fill="white" transform="translate(0.5)"/>
</clipPath>
</defs>
</svg>
