<svg width="48" height="48" viewBox="0 0 48 48" fill="none" xmlns="http://www.w3.org/2000/svg">
<path d="M27.1899 39.4C26.4199 40.42 25.2599 41 24.0099 41C22.7599 41 21.5999 40.42 20.8299 39.4C20.4999 38.96 19.8699 38.87 19.4299 39.21C18.9899 39.54 18.8999 40.17 19.2399 40.61C20.3899 42.13 22.1299 43.01 24.0199 43.01C25.9099 43.01 27.6399 42.14 28.7999 40.61C29.1299 40.17 29.0499 39.54 28.6099 39.21C28.1699 38.88 27.5399 38.96 27.2099 39.4H27.1899Z" fill="current"/>
<path d="M37.41 26.9C35.22 24.32 34.01 20.91 34.01 17.31C34.01 12 30.08 7.57 25.01 7.06V6C25.01 5.45 24.56 5 24.01 5C23.46 5 23.01 5.45 23.01 6V7H14.01V7.5L15.22 8.71C15.41 8.9 15.66 9 15.93 9H23.96C23.96 9 24 9.01 24.02 9.01H24.17C24.3 9.01 24.43 9.01 24.56 9.01C28.75 9.28 32.03 12.92 32.03 17.3C32.03 21.37 33.4 25.24 35.9 28.18C37.27 29.8 38.03 31.86 38.03 33.99C38.03 34.54 37.58 34.99 37.03 34.99H11.01C10.46 34.99 10.01 34.54 10.01 33.99C10.01 31.86 10.77 29.8 12.14 28.18C14.64 25.24 16.01 21.37 16.01 17.3V16.99C16.01 16.09 16.17 15.19 16.47 14.32C16.65 13.8 16.38 13.23 15.86 13.04C15.34 12.86 14.77 13.13 14.58 13.65C14.2 14.73 14 15.86 14 16.98V17.29C14 20.89 12.79 24.3 10.6 26.88C8.92 28.86 8 31.38 8 33.99C8 35.64 9.35 36.99 11 36.99H37C38.65 36.99 40 35.65 40 33.99C40 31.39 39.08 28.87 37.4 26.89L37.41 26.9Z" fill="current"/>
</svg>
